<?xml version="1.0" encoding="UTF-8" standalone="no"?>
<!-- Created with Inkscape (http://www.inkscape.org/) -->

<svg
   xmlns:dc="http://purl.org/dc/elements/1.1/"
   xmlns:cc="http://creativecommons.org/ns#"
   xmlns:rdf="http://www.w3.org/1999/02/22-rdf-syntax-ns#"
   xmlns:svg="http://www.w3.org/2000/svg"
   xmlns="http://www.w3.org/2000/svg"
   xmlns:sodipodi="http://sodipodi.sourceforge.net/DTD/sodipodi-0.dtd"
   xmlns:inkscape="http://www.inkscape.org/namespaces/inkscape"
   version="1.1"
   id="svg10"
   width="889"
   height="374"
   viewBox="0 0 889 374"
   sodipodi:docname="qaq.jpg.svg"
   inkscape:version="0.92.2 5c3e80d, 2017-08-06">
  <metadata
     id="metadata16">
    <rdf:RDF>
      <cc:Work
         rdf:about="">
        <dc:format>image/svg+xml</dc:format>
        <dc:type
           rdf:resource="http://purl.org/dc/dcmitype/StillImage" />
        <dc:title />
      </cc:Work>
    </rdf:RDF>
  </metadata>
  <defs
     id="defs14" />
  <sodipodi:namedview
     pagecolor="#ffffff"
     bordercolor="#666666"
     borderopacity="1"
     objecttolerance="10"
     gridtolerance="10"
     guidetolerance="10"
     inkscape:pageopacity="0"
     inkscape:pageshadow="2"
     inkscape:window-width="1680"
     inkscape:window-height="1005"
     id="namedview12"
     showgrid="false"
     inkscape:zoom="1.2217278"
     inkscape:cx="377.18323"
     inkscape:cy="209.32839"
     inkscape:window-x="0"
     inkscape:window-y="1"
     inkscape:window-maximized="1"
     inkscape:current-layer="text4605" />
  <g
     aria-label="キ  ツ  カ  ア"
     style="font-style:normal;font-variant:normal;font-weight:bold;font-stretch:normal;font-size:21.33333397px;line-height:1.25;font-family:'Sarasa Gothic J';-inkscape-font-specification:'Sarasa Gothic J Bold';letter-spacing:0px;word-spacing:0px;fill:none;fill-opacity:1;stroke:#000000"
     id="text4605"
     transform="matrix(-1,0,0,1,891.94368,0)">
    <path
       style="fill:#000000;stroke:none"
       d="M 264.86914 66.986328 C 260.29093 66.986328 256.44727 68.115234 256.44727 68.115234 L 255.86719 72.167969 L 244.58203 72.167969 L 244.00391 79.980469 L 235.32227 79.980469 L 227.79688 83.164062 C 227.79688 83.164063 226.63965 86.347005 227.50781 88.662109 C 229.17388 89.647388 212.14165 92.183834 211.30273 93.582031 C 211.01302 96.850623 210.37379 97.003539 210.43359 102.26367 C 210.49336 107.52381 213.03906 110.07812 213.03906 110.07812 L 218.24805 109.83789 L 217.2793 141.52344 C 187.79991 141.44995 165.58144 141.68692 145.94141 141.66602 L 146.01758 136.64258 L 161.59961 136.63867 L 160.97461 123.94141 L 156.93164 120.60547 L 138.49219 121.96289 L 135.67773 118.64453 C 132.29124 118.08064 131.01145 118.84549 129.92383 120.19531 L 126.2793 125.50977 L 98.623047 124.96875 L 98.556641 129.37109 L 122.41211 129.61523 C 120.943 131.10809 119.8779 133.0162 120.66602 136.83594 L 125.11328 136.61328 L 125.05273 141.51172 C 94.554396 141.0109 66.043572 139.15777 17.701172 133.22852 C 16.557212 139.09607 29.506548 128.57486 34.486328 178.37305 C 83.339508 179.24121 871.39648 178.95312 871.39648 178.95312 L 870.71875 161.00977 C 870.71875 161.00977 817.14705 161.08496 746.89648 161.08398 L 746.90625 157.69336 L 751.34961 157.98242 C 752.19567 154.17511 751.1572 152.25133 749.71094 150.73633 L 773.56836 150.85547 L 773.56836 146.45312 L 745.9082 146.57227 L 742.3457 141.20312 C 741.97562 141.06989 739.92117 138.92361 736.61523 139.56641 L 733.75 142.83984 L 715.33398 141.20312 L 711.24219 144.47656 L 710.42383 157.16406 L 726.00391 157.4043 L 726.00391 161.08594 C 718.46442 161.08394 710.55123 161.07431 702.68359 161.07031 L 702.68359 144.51367 L 690.24023 144.51367 L 679.17383 144.46094 L 679.18945 139.46094 L 683.63281 139.75 C 684.47887 135.94269 683.4404 134.01891 681.99414 132.50391 L 705.85156 132.62305 L 705.85156 128.2207 L 678.19141 128.3418 L 674.62891 122.9707 C 673.2973 122.36087 671.53861 120.63834 668.89844 121.33398 L 666.0332 124.60742 L 647.61719 122.9707 L 643.52539 126.24609 L 642.70703 138.93164 L 658.28711 139.17188 L 658.28711 144.36328 L 628.88867 144.22461 L 628.88867 159.5625 L 606.48242 159.6582 L 606.89648 156.66992 L 622.52344 156.37891 L 622.52344 151.45898 L 614.99805 151.45898 L 614.99805 145.09375 L 597.3457 141.04297 L 588.08594 141.04297 L 584.90234 144.80469 L 584.61328 150.30273 L 560.01562 150.5918 L 564.06641 154.64258 L 585.19141 154.64258 L 585.31641 159.74609 L 560.59375 159.85156 C 555.70899 151.23825 560.2369 145.44884 562.61914 139.01562 C 550.28953 137.94009 553.03547 138.24111 550.17578 141.91016 C 549.75393 146.81822 549.27262 151.54657 549.59766 158.69531 L 522.48633 158.69531 L 522.60156 153.48633 L 543.72656 153.48633 L 547.7793 149.43359 L 523.18164 149.14453 L 522.89062 143.64648 L 519.70898 139.88477 L 510.44727 139.88477 L 492.79492 143.93555 L 492.79492 149.72461 L 484.98242 150.30273 L 485.27148 155.22266 L 501.47656 155.51172 L 501.47656 158.69531 L 485.35352 158.69531 C 483.23134 157.25262 481.10851 154.73015 478.98633 151.75 C 478.01692 148.75966 478.7652 145.76768 479.27539 142.77734 C 484.95988 142.53278 489.5984 141.1526 493.74414 140.13867 C 490.79986 134.85723 486.4958 137.0795 486.79297 136.78711 L 486.45312 126.19922 L 494.90234 125.41602 C 497.06285 122.93945 496.91593 120.20079 496.92773 117.02344 L 466.64258 117.19336 C 465.57436 121.59439 466.36833 125.62819 470.59375 126.24805 C 470.94439 129.17714 470.3991 133.61613 470.01562 137.2793 C 462.74626 137.17631 454.84521 138.12632 449.75781 134.38672 C 449.75781 134.38672 448.89026 141.04297 442.23438 141.04297 C 435.57844 141.04297 437.31445 128.59766 437.31445 128.59766 L 446.0332 128.125 C 446.12866 125.8099 440.7902 118.89388 435.98828 119.47266 C 437.72461 111.65918 438.47233 106.02604 440.49805 98.501953 C 440.20866 93.582357 433.84147 84.322589 423.71289 89.242188 C 422.29154 85.50573 423.52349 81.463856 408.66406 79.980469 C 407.74624 82.818674 406.34961 89.820312 406.34961 89.820312 C 406.34961 89.820312 404.61459 117.31251 396.51172 120.78516 C 388.40886 124.25782 386.96094 131.20312 386.96094 131.20312 L 394.01562 131.20312 C 393.43449 131.8191 391.65546 134.01278 386.38281 141.04297 C 382.97044 145.59279 373.99203 148.09148 363.52148 149.00391 L 363.52148 143.06836 L 380.30469 143.06836 L 380.59375 138.14844 L 372.78125 138.14844 L 372.78125 131.78125 L 355.12891 127.73047 L 345.86719 127.73047 L 342.68555 131.49219 L 342.39453 136.99023 L 317.79688 137.2793 L 321.84961 141.33203 L 342.68555 141.04102 L 342.52148 148.9043 C 330.14119 147.79814 319.23718 144.95273 316.06055 141.04297 C 318.48966 132.14532 319.82227 127.15039 319.82227 127.15039 L 323.33203 128.11133 C 322.57789 125.49223 323.21357 123.04568 318.375 119.91602 C 318.375 119.91602 322.71712 106.60482 325.90039 96.765625 C 322.71712 86.058268 309.11523 85.769531 309.11523 85.769531 L 304.77539 101.39648 L 280.75586 101.10742 L 281.91211 68.984375 C 281.86228 68.585756 279.7388 68.672192 273.23047 68.695312 C 270.62597 67.393068 267.61606 66.986328 264.86914 66.986328 z M 194.70312 150.90039 C 194.70312 150.92886 194.73749 151.19365 194.80859 151.69141 C 194.85126 152.07541 194.89483 152.36534 194.9375 152.56445 C 194.9517 152.70667 195.06594 153.36112 195.2793 154.52734 C 197.81085 154.1149 199.21025 153.88111 199.48047 153.82422 C 200.36225 153.65355 201.03121 153.503 201.48633 153.375 L 201.99805 156.16992 C 201.91271 156.18412 201.25827 156.26931 200.03516 156.42578 L 195.76953 157.10938 L 196.42969 160.50195 C 199.16035 160.04685 200.70499 159.78205 201.06055 159.71094 C 202.08455 159.4976 202.80966 159.32722 203.23633 159.19922 L 203.79102 162.01562 C 203.52079 162.02983 202.77389 162.1368 201.55078 162.33594 C 200.65478 162.47816 199.1121 162.72647 196.92188 163.08203 C 197.04988 163.75047 197.20573 164.52642 197.39062 165.4082 C 197.56129 166.26154 197.66101 166.76543 197.68945 166.92188 C 197.80323 167.39121 197.98814 168.08923 198.24414 169.01367 L 195.17188 169.56836 C 195.00121 168.25991 194.90149 167.54206 194.87305 167.41406 C 194.78771 166.88784 194.54666 165.59347 194.14844 163.53125 C 191.60266 163.95792 189.90216 164.24786 189.04883 164.4043 C 188.08172 164.58919 187.37113 164.73974 186.91602 164.85352 L 186.31836 161.99414 C 186.64547 161.97994 187.38511 161.90201 188.53711 161.75977 C 188.57978 161.75977 190.28558 161.48967 193.65625 160.94922 L 193.01758 157.53516 C 192.2638 157.64893 191.41718 157.78496 190.47852 157.94141 C 189.41185 158.12629 188.86438 158.21875 188.83594 158.21875 C 188.08216 158.3752 187.42771 158.5238 186.87305 158.66602 L 186.29688 155.72266 C 187.02221 155.69419 187.68392 155.64335 188.28125 155.57227 C 189.23414 155.45849 190.64275 155.25374 192.50586 154.95508 C 192.43475 154.61374 192.35486 154.22214 192.26953 153.78125 C 192.1842 153.35458 192.13532 153.09901 192.12109 153.01367 C 192.03576 152.61545 191.89442 152.07524 191.69531 151.39258 L 194.70312 150.90039 z M 127.73633 151.13477 L 130.87109 151.13477 C 130.82843 151.50454 130.78681 152.13916 130.74414 153.03516 C 130.71567 153.88849 130.6866 154.52841 130.6582 154.95508 L 134.66992 154.95508 C 135.12504 154.95508 135.66524 154.90424 136.29102 154.80469 L 138.125 155.70117 C 138.02545 156.27006 137.97656 156.64714 137.97656 156.83203 C 137.77745 162.27914 137.3568 165.75612 136.7168 167.26367 C 136.24746 168.35879 135.33018 168.90625 133.96484 168.90625 C 132.99774 168.90625 131.81761 168.85011 130.42383 168.73633 L 130.10352 165.87695 C 131.1844 166.07607 132.17962 166.17578 133.08984 166.17578 C 133.41695 166.17578 133.67448 166.11236 133.85938 165.98438 C 134.03004 165.88482 134.17864 165.69991 134.30664 165.42969 C 134.59108 164.81813 134.81761 163.61622 134.98828 161.82422 C 135.13051 160.33089 135.20312 158.89323 135.20312 157.51367 L 130.40234 157.51367 C 130.01834 160.28701 129.29323 162.59838 128.22656 164.44727 C 127.18834 166.23927 125.7018 167.82552 123.76758 169.20508 L 121.29297 167.19922 C 122.37386 166.60189 123.30567 165.90582 124.08789 165.10938 C 125.06922 164.14227 125.84322 163.03281 126.41211 161.78125 C 126.96678 160.57236 127.36564 159.14923 127.60742 157.51367 L 124.79102 157.51367 C 123.52524 157.51367 122.58812 157.54274 121.97656 157.59961 L 121.97656 154.80469 C 123.02901 154.90424 123.96613 154.95508 124.79102 154.95508 L 127.8418 154.95508 C 127.87026 154.15864 127.88477 153.53855 127.88477 153.09766 C 127.88477 152.38655 127.83588 151.7321 127.73633 151.13477 z M 162.0293 151.62695 C 162.29952 152.1674 162.69113 153.07742 163.20312 154.35742 C 163.71513 155.66587 164.07042 156.66108 164.26953 157.34375 L 161.58203 158.2832 C 161.3687 157.58632 161.02793 156.61819 160.55859 155.38086 C 160.07504 154.10086 159.67617 153.14195 159.36328 152.50195 L 162.0293 151.62695 z M 89.515625 152.20312 C 90.411625 152.34535 91.280034 152.41602 92.119141 152.41602 L 103.61719 152.41602 C 104.66963 152.41602 105.38748 152.35261 105.77148 152.22461 L 107.47852 153.80273 C 107.09452 154.25785 106.81715 154.62766 106.64648 154.91211 C 106.04915 155.90766 105.33129 156.90288 104.49219 157.89844 C 103.46819 159.12155 102.47297 160.07515 101.50586 160.75781 L 99.308594 158.98633 C 100.10503 158.50277 100.90082 157.84107 101.69727 157.00195 C 102.4226 156.24818 102.9357 155.58647 103.23438 155.01758 L 92.119141 155.01758 C 91.550254 155.01758 90.681845 155.06841 89.515625 155.16797 L 89.515625 152.20312 z M 168.57812 152.41602 L 171.75781 153.33398 C 171.57293 153.80332 171.39528 154.35805 171.22461 154.99805 C 170.86905 156.36338 170.4213 157.69937 169.88086 159.00781 C 169.19819 160.61493 168.4513 161.95091 167.64062 163.01758 C 166.54551 164.45402 165.25115 165.72129 163.75781 166.81641 C 162.33559 167.85463 160.83453 168.6722 159.25586 169.26953 L 156.86719 166.87891 C 158.41741 166.43802 159.91847 165.76374 161.36914 164.85352 C 162.94781 163.84374 164.25475 162.68345 165.29297 161.375 C 166.13208 160.30833 166.85915 158.90168 167.4707 157.15234 C 168.03959 155.54523 168.40746 153.96624 168.57812 152.41602 z M 156.09961 152.94922 C 156.44094 153.63189 156.87416 154.61258 157.40039 155.89258 C 157.94083 157.20102 158.33244 158.21077 158.57422 158.92188 L 155.82227 159.92578 C 155.60893 159.21467 155.22459 158.17588 154.66992 156.81055 C 154.10104 155.43099 153.66781 154.45756 153.36914 153.88867 L 156.09961 152.94922 z M 95.681641 156.68164 L 98.775391 156.68164 C 98.775391 158.91453 98.697456 160.57146 98.541016 161.65234 C 98.285016 163.33057 97.757381 164.7537 96.960938 165.91992 C 96.050718 167.28526 94.678417 168.45812 92.84375 169.43945 L 90.369141 167.41406 C 91.165587 167.14384 91.912488 166.75223 92.609375 166.24023 C 93.889375 165.35845 94.765042 164.28335 95.234375 163.01758 C 95.632595 161.97935 95.832031 160.50734 95.832031 158.60156 C 95.832031 157.96156 95.781194 157.32164 95.681641 156.68164 z "
       transform="matrix(-1,0,0,1,891.94368,0)"
       id="path4613" />
  </g>
</svg>
